:SAMPLES-PER-SECOND 30
:FULLY-SPECIFIED
:DEGREES
89
root  14.7381 33.5503 4.01607 4.1937 -80.5186 -15.7549
RightUpLeg  -8.00197 -11.8821 -38.037
RightLeg  34.8578 -0.0514689 -0.321487
RightFoot  23.5714 -7.45038 24.0279
RightToes  -5.28226e-011 1.30204e-014 -6.03759e-014
Spine  33.7239 6.92547 13.4673
Spine1  2.063 12.4097 -8.38491
HEad  -23.7295 -33.8043 2.55936
LeftShoulder1  -0.229695 4.76123 -12.3876
LeftArm  -15.9649 -2.3399 -58.703
LeftForeArm  -24.1942 -53.8531 -18.0293
LeftHand  0.36735 6.88589 27.9256
RightShoulder  1.6374 2.75165 19.8756
RightArm  -10.2002 -43.7965 19.9885
RightForeArm  -24.4301 7.61002 10.7781
RightHand  -0.936898 0.213454 -19.3662
LeftUpLeg  -20.4515 4.41805 20.9262
LeftLeg  59.3504 -1.3945 -1.95498
LeftFoot  -23.6272 -2.31581 -22.5488
LeftToes  -2.75829e-010 5.07641e-011 -5.51782e-011
90
root  14.9839 32.3367 3.12332 5.79056 -81.9214 -16.2893
RightUpLeg  -13.5584 -10.8735 -36.8934
RightLeg  43.0421 -2.03994 -2.34543
RightFoot  11.8654 -6.15716 29.5886
RightToes  -5.28226e-011 1.30204e-014 -6.03759e-014
Spine  34.689 5.35085 5.25464
Spine1  -1.43805 6.88883 -1.68659
HEad  -21.9339 -20.1465 -1.3319
LeftShoulder1  0.670109 0.6875 -16.942
LeftArm  -20.2787 15.2122 -44.9085
LeftForeArm  -12.9644 -68.6432 -31.2227
LeftHand  0.512465 7.39025 29.1339
RightShoulder  1.22327 1.37044 18.6873
RightArm  -16.6318 -31.6087 18.2947
RightForeArm  -33.4348 15.1174 6.97327
RightHand  -0.99437 0.344729 -20.0095
LeftUpLeg  -23.9678 10.3575 24.1738
LeftLeg  64.2587 -3.64101 -7.50247
LeftFoot  -25.28 -2.70112 -23.0423
LeftToes  -2.75829e-010 5.07641e-011 -5.51782e-011
91
root  15.1634 31.0595 1.98156 14.8296 -84.1306 -23.9415
RightUpLeg  -21.2348 -9.11107 -34.6737
RightLeg  52.6417 -2.35926 -3.64676
RightFoot  3.70001 -4.1642 30.9272
RightToes  -5.28226e-011 1.30204e-014 -6.03759e-014
Spine  35.3592 3.57609 -4.89885
Spine1  -5.1471 0.703751 6.79999
HEad  -20.5501 -1.91432 -5.42666
LeftShoulder1  1.60492 -2.41416 -20.8406
LeftArm  -16.2976 27.9534 -29.7517
LeftForeArm  -17.769 -63.4677 -26.7747
LeftHand  0.356372 6.71131 30.208
RightShoulder  0.722352 -0.328826 15.7221
RightArm  -18.5398 -17.2871 26.482
RightForeArm  -36.8136 24.8953 6.73629
RightHand  -1.24857 1.17736 -22.0547
LeftUpLeg  -27.0772 15.2809 28.3324
LeftLeg  68.5254 -4.44249 -11.5138
LeftFoot  -25.6839 -2.9219 -24.1229
LeftToes  -2.75829e-010 5.07641e-011 -5.51782e-011
92
root  15.3201 29.8927 0.820658 23.2986 -84.2941 -31.565
RightUpLeg  -25.6882 -9.40214 -33.0635
RightLeg  60.1027 -1.06003 -2.45155
RightFoot  -3.45157 -2.24369 31.5756
RightToes  -5.28226e-011 1.30204e-014 -6.03759e-014
Spine  36.3284 1.63683 -14.6859
Spine1  -6.6719 -5.66682 18.1031
HEad  -22.4127 16.1329 -9.13535
LeftShoulder1  2.38121 -4.98549 -21.7318
LeftArm  -2.01068 34.0056 -18.8632
LeftForeArm  -34.4566 -41.8083 -11.545
LeftHand  0.0515434 5.5746 29.8676
RightShoulder  0.130738 -2.75413 12.2012
RightArm  -28.14 -7.04411 41.9251
RightForeArm  -26.6038 35.3291 9.42867
RightHand  -1.12153 0.302898 -22.7514
LeftUpLeg  -30.4905 16.0659 31.8797
LeftLeg  71.8707 -4.22698 -13.3153
LeftFoot  -24.9738 -2.80435 -24.3726
LeftToes  -2.75829e-010 5.07641e-011 -5.51782e-011
93
root  15.4879 28.8855 -0.149437 19.4224 -82.7619 -27.4676
RightUpLeg  -26.6159 -12.7414 -33.1504
RightLeg  65.0443 0.946618 1.64672
RightFoot  -11.7656 0.0400487 32.866
RightToes  -5.28226e-011 1.30204e-014 -6.03759e-014
Spine  37.8192 0.034833 -19.543
Spine1  -5.87713 -10.1031 25.0517
HEad  -25.852 26.3011 -9.57961
LeftShoulder1  2.79581 -6.6218 -21.2493
LeftArm  10.589 30.3616 -13.4699
LeftForeArm  -44.5878 -17.1258 -7.72714
LeftHand  0.126717 5.88007 29.2845
RightShoulder  0.109268 -2.9896 13.7934
RightArm  -33.6313 -11.7896 51.9006
RightForeArm  -18.5561 55.086 18.5398
RightHand  -0.971813 -0.571726 -23.2351
LeftUpLeg  -34.1607 12.6044 33.7015
LeftLeg  74.341 -3.38547 -12.522
LeftFoot  -24.7095 -2.83546 -25.0704
LeftToes  -2.75829e-010 5.07641e-011 -5.51782e-011
94
root  15.6085 27.9329 -0.896612 13.805 -82.1571 -21.9764
RightUpLeg  -27.8141 -16.5329 -34.4725
RightLeg  69.8287 2.44877 6.63169
RightFoot  -18.1661 1.8568 32.5133
RightToes  -5.28226e-011 1.30204e-014 -6.03759e-014
Spine  38.5745 -0.700138 -16.1361
Spine1  -4.51729 -9.54247 20.882
HEad  -27.9986 23.8619 -5.24446
LeftShoulder1  2.3123 -5.70927 -18.477
LeftArm  -9.24608 17.275 -11.9133
LeftForeArm  -28.319 1.35132 -11.5144
LeftHand  0.0647444 5.65695 26.7187
RightShoulder  0.683678 -0.759186 18.2818
RightArm  -32.6437 -28.123 51.7605
RightForeArm  -8.31021 70.6374 35.9805
RightHand  -0.925604 -1.12221 -24.9626
LeftUpLeg  -36.489 7.77768 34.7765
LeftLeg  76.3543 -2.32472 -9.81065
LeftFoot  -25.263 -3.38599 -28.4183
LeftToes  -2.75829e-010 5.07641e-011 -5.51782e-011
95
root  15.6325 27.1294 -1.51747 11.9724 -84.2153 -20.4795
RightUpLeg  -31.4685 -17.0331 -35.0479
RightLeg  74.9695 2.46723 9.30857
RightFoot  -20.218 2.27057 30.3027
RightToes  -5.28226e-011 1.30204e-014 -6.03759e-014
Spine  38.4866 -1.57142 -7.51297
Spine1  -3.61272 -5.61815 7.98765
HEad  -29.4683 15.6457 -0.32518
LeftShoulder1  1.6689 -4.00231 -15.4793
LeftArm  -19.1951 6.23418 -12.988
LeftForeArm  -23.7711 1.69346 -7.59083
LeftHand  -0.160626 4.64536 24.2866
RightShoulder  1.3615 1.37203 21.8627
RightArm  -27.1164 -41.5767 49.6965
RightForeArm  -0.323795 73.424 45.1166
RightHand  -0.75631 -2.10341 -26.3278
LeftUpLeg  -36.2255 4.2701 35.9555
LeftLeg  77.88 -1.46561 -6.63127
LeftFoot  -25.3639 -3.93984 -32.4518
LeftToes  -2.75829e-010 5.07641e-011 -5.51782e-011
96
root  15.5249 26.7686 -2.10212 14.9932 -88.5186 -24.0538
RightUpLeg  -35.8169 -13.0929 -34.4086
RightLeg  78.4541 1.77599 8.82631
RightFoot  -20.1803 2.11614 28.6054
RightToes  -5.28226e-011 1.30204e-014 -6.03759e-014
Spine  37.8872 -3.32474 -1.07891
Spine1  -2.00157 -3.21768 -4.61435
HEad  -30.8129 12.921 0.797496
LeftShoulder1  1.51614 -4.02203 -13.1521
LeftArm  -19.3293 7.03152 -14.1668
LeftForeArm  -26.7768 -2.63727 -7.91575
LeftHand  -0.20044 4.39439 22.7666
RightShoulder  1.49746 2.00481 20.8697
RightArm  -21.5224 -43.007 52.9894
RightForeArm  -6.77852 69.2585 34.1024
RightHand  -0.657349 -2.53149 -26.314
LeftUpLeg  -32.9565 2.75041 36.3333
LeftLeg  78.0343 -0.88537 -3.48167
LeftFoot  -25.1982 -4.08358 -33.8785
LeftToes  -2.75829e-010 5.07641e-011 -5.51782e-011
97
root  15.2408 27.0308 -2.65263 -155.684 -86.444 145.866
RightUpLeg  -38.1129 -7.06351 -34.2473
RightLeg  79.0617 1.36521 6.93806
RightFoot  -20.7056 2.23025 28.41
RightToes  -5.28226e-011 1.30204e-014 -6.03759e-014
Spine  36.8677 -5.2819 0.541864
Spine1  -0.223257 -3.40864 -11.6358
HEad  -31.3348 16.8509 -1.77476
LeftShoulder1  1.5756 -4.31326 -13.1613
LeftArm  -16.4047 16.0205 -15.2098
LeftForeArm  -33.3011 -3.3704 -8.0799
LeftHand  -0.140797 4.69329 22.727
RightShoulder  1.17776 1.66558 16.1129
RightArm  -21.7966 -34.7247 59.7472
RightForeArm  -13.4704 62.3082 23.4231
RightHand  -0.772742 -2.17527 -27.4629
LeftUpLeg  -27.099 2.26506 34.4939
LeftLeg  75.5864 -0.103473 0.669595
LeftFoot  -25.1461 -4.23757 -35.1436
LeftToes  -2.75829e-010 5.07641e-011 -5.51782e-011
98
root  14.7827 27.8394 -3.0909 -149.093 -82.4106 138.584
RightUpLeg  -37.5296 -2.90261 -35.329
RightLeg  77.2201 1.28034 5.28173
RightFoot  -21.0478 2.30814 28.3321
RightToes  -5.28226e-011 1.30204e-014 -6.03759e-014
Spine  36.0768 -6.44108 2.60509
Spine1  -0.67032 -3.18811 -16.2188
HEad  -29.1069 17.9466 -4.94567
LeftShoulder1  1.43443 -2.6295 -16.8473
LeftArm  -18.728 21.8846 -18.2592
LeftForeArm  -39.8181 -6.19029 -6.95601
LeftHand  -6.80914e-005 5.40869 23.5908
RightShoulder  1.00263 1.65305 12.4956
RightArm  -26.1103 -28.8044 63.0641
RightForeArm  -16.4946 57.7009 19.39
RightHand  -0.9254 -1.70558 -28.7515
LeftUpLeg  -21.2767 1.14408 30.6761
LeftLeg  71.0816 1.46683 5.69394
LeftFoot  -22.2299 -3.76104 -39.8437
LeftToes  -2.75829e-010 5.07641e-011 -5.51782e-011
